<?xml version="1.0" standalone="no"?>
<!DOCTYPE svg PUBLIC "-//W3C//DTD SVG 20010904//EN"
 "http://www.w3.org/TR/2001/REC-SVG-20010904/DTD/svg10.dtd">
<svg version="1.0" xmlns="http://www.w3.org/2000/svg"
 width="781.000000pt" height="162.000000pt" viewBox="0 0 781.000000 162.000000"
 preserveAspectRatio="xMidYMid meet">
<metadata>
Created by potrace 1.16, written by Peter Selinger 2001-2019
</metadata>
<g transform="translate(0.000000,162.000000) scale(0.100000,-0.100000)"
fill="#000000" stroke="none">
<path d="M5883 1533 c-7 -2 -13 -13 -13 -24 0 -10 -6 -19 -13 -19 -18 0 -77
-63 -77 -82 0 -9 17 -26 37 -38 25 -15 32 -16 23 -6 -11 14 -10 16 4 10 9 -3
16 -10 16 -15 0 -20 20 -7 26 16 3 13 9 23 13 22 11 -3 81 66 81 81 0 7 -12
24 -26 37 -26 24 -45 29 -71 18z"/>
<path d="M6307 1379 c-18 -10 -18 -12 -1 -30 18 -20 6 -27 -13 -8 -7 7 -19 9
-29 5 -15 -6 -15 -9 6 -31 13 -14 18 -25 12 -25 -7 0 -12 4 -12 9 0 5 -7 11
-15 15 -8 3 -14 2 -14 -2 4 -22 -2 -52 -10 -52 -5 0 -7 10 -3 23 5 20 4 21
-12 8 -9 -8 -14 -21 -11 -30 3 -8 3 -12 -1 -9 -6 7 -67 -51 -108 -102 -15 -19
-16 -22 -2 -17 9 4 -21 -30 -66 -74 -46 -44 -77 -78 -70 -74 6 3 12 1 12 -4 0
-6 -9 -11 -19 -11 -25 0 -32 -11 -24 -38 3 -13 13 -22 25 -22 18 0 19 2 7 17
-10 11 -10 14 -1 9 7 -4 12 -2 12 6 0 9 3 9 10 -2 5 -8 10 -13 11 -10 6 32 4
56 -5 62 -6 4 -7 10 -4 13 11 11 28 -5 28 -26 0 -16 3 -18 20 -9 11 6 17 16
14 25 -4 8 -10 12 -15 9 -5 -3 -6 3 -2 12 5 15 8 15 17 2 9 -13 15 -11 41 13
30 29 31 44 1 33 -9 -3 -16 -13 -16 -21 0 -17 -22 -12 -28 7 -3 8 0 10 8 5 10
-6 12 -4 7 8 -4 12 -2 14 10 10 10 -4 14 -2 9 5 -3 6 -1 14 5 18 8 4 9 3 5 -4
-4 -7 -2 -12 3 -12 6 0 11 5 11 10 0 6 8 10 18 10 14 0 15 -2 2 -10 -8 -5 -11
-12 -7 -16 3 -4 14 -1 23 7 16 13 16 12 5 -8 -6 -13 -8 -23 -4 -23 4 0 2 -4
-6 -9 -7 -5 -10 -14 -7 -20 4 -6 12 -9 17 -6 10 7 10 -18 0 -55 l-7 -25 -6 27
c-3 15 -1 25 3 22 5 -3 9 -1 9 5 0 13 -19 25 -27 17 -10 -10 18 -116 30 -116
8 0 7 -4 -2 -9 -8 -5 -12 -18 -8 -30 3 -12 1 -21 -4 -21 -5 0 -9 -8 -9 -18 0
-50 -74 -109 -145 -117 -14 -1 -32 -8 -41 -16 -16 -13 -16 -12 -6 8 16 29 15
43 -3 43 -8 0 -15 -6 -15 -12 0 -9 -3 -8 -10 2 -5 8 -12 11 -16 7 -4 -3 -1
-13 5 -21 9 -10 9 -16 1 -21 -8 -5 -8 -10 0 -20 12 -14 27 -14 48 -1 11 7 12
4 3 -13 -11 -19 -9 -21 16 -22 15 0 47 -1 70 -3 38 -2 40 -1 23 11 -26 18 -26
33 0 26 11 -3 18 -9 15 -13 -3 -5 -1 -11 4 -15 7 -4 7 -15 1 -31 -6 -14 -10
-27 -10 -30 0 -3 39 -3 86 -2 l87 3 41 78 41 77 122 0 123 0 0 -80 0 -80 91 0
92 0 -7 83 c-4 45 -13 176 -21 292 -8 116 -17 247 -21 293 l-7 82 -91 0 c-100
0 -92 5 -141 -81 -60 -107 -211 -348 -217 -349 -12 0 -21 68 -16 123 3 29 15
75 28 102 13 28 23 59 22 70 -1 13 1 16 6 7 6 -9 14 -4 30 17 21 29 20 41 -6
41 -9 0 -13 -7 -9 -20 3 -11 1 -20 -4 -20 -5 0 -9 7 -9 15 0 8 -7 15 -16 15
-13 0 -15 -7 -11 -30 4 -16 2 -32 -3 -35 -5 -3 -7 -12 -3 -20 3 -9 -1 -15 -11
-15 -21 0 -20 9 2 33 11 13 13 21 6 24 -7 2 -10 14 -7 26 4 16 0 14 -16 -10
-11 -18 -26 -33 -32 -33 -6 0 -8 -9 -4 -22 6 -22 6 -22 -14 2 -11 14 -21 19
-21 13 0 -7 -3 -12 -7 -12 -21 3 -22 -3 -7 -28 l16 -28 -21 25 -21 25 21 17
c11 9 26 15 33 12 7 -3 18 7 26 20 7 14 17 23 22 20 4 -3 8 2 8 11 0 10 6 15
13 12 8 -3 20 -1 27 3 11 7 11 12 -1 27 -13 16 -13 17 4 4 9 -7 17 -10 17 -6
0 4 6 3 13 -4 10 -8 17 -7 26 2 10 9 11 9 6 -4 -4 -10 0 -16 9 -16 8 0 13 3
11 6 -2 4 12 17 31 30 40 28 42 44 9 76 -26 27 -49 31 -78 14z m243 -369 l0
-140 -75 0 c-41 0 -75 2 -75 5 0 3 22 44 50 91 27 48 60 109 72 135 13 27 24
49 26 49 1 0 2 -63 2 -140z"/>
<path d="M340 1324 c-119 -37 -219 -120 -277 -229 -109 -208 -74 -426 82 -508
55 -29 188 -30 260 -3 48 19 150 80 160 96 4 6 -39 117 -50 129 -2 1 -14 -7
-27 -19 -47 -44 -119 -65 -205 -61 -79 3 -136 112 -113 214 26 110 91 195 167
221 26 9 56 16 68 16 38 0 112 -30 135 -55 l23 -24 48 64 c27 35 49 67 49 70
0 3 -15 20 -34 38 -60 59 -189 81 -286 51z"/>
<path d="M6983 1233 c-26 -108 -157 -608 -169 -645 -5 -16 4 -18 84 -18 l89 0
6 33 c3 19 15 66 27 105 21 71 21 72 55 72 27 0 35 -4 35 -17 0 -10 12 -57 26
-105 l27 -88 100 0 c91 0 98 2 92 17 -4 10 -22 59 -39 108 -17 50 -34 95 -38
100 -3 6 -9 24 -12 41 -7 34 -13 25 110 160 44 48 81 91 82 95 2 5 -36 9 -85
9 -80 0 -90 -2 -107 -22 -106 -126 -129 -148 -157 -148 -16 0 -29 2 -29 5 0 3
12 49 26 102 14 54 34 132 45 173 11 41 22 83 25 93 5 15 -3 17 -83 17 l-88 0
-22 -87z"/>
<path d="M7626 1312 c-3 -5 -10 -26 -15 -48 -5 -21 -13 -49 -16 -61 -7 -23 -6
-23 77 -23 l85 0 16 60 c10 33 17 64 17 70 0 12 -156 14 -164 2z"/>
<path d="M5693 1250 c-26 -11 -28 -20 -10 -39 10 -11 8 -13 -10 -8 -13 3 -23
1 -23 -5 0 -5 -4 -7 -9 -4 -4 3 -17 -4 -27 -15 -10 -11 -14 -20 -9 -19 22 5
36 -1 30 -10 -4 -6 -16 -10 -28 -8 -14 2 -23 -3 -25 -16 -3 -13 0 -16 9 -11 8
5 10 4 5 -4 -6 -9 -11 -9 -24 1 -12 10 -14 10 -8 1 5 -9 1 -13 -10 -13 -14 0
-13 -4 7 -21 13 -12 34 -28 47 -36 18 -13 20 -19 11 -32 -11 -15 41 40 62 67
14 18 3 28 -14 14 -8 -7 -17 -9 -20 -5 -4 3 -7 1 -7 -5 0 -5 6 -12 13 -15 6
-2 -1 -4 -16 -4 -26 0 -27 1 -11 18 9 10 13 23 9 29 -8 14 34 62 47 54 5 -3
16 0 24 7 12 9 17 10 27 0 9 -10 8 -11 -5 -6 -10 4 -18 3 -18 -2 0 -5 9 -9 20
-10 23 -2 29 31 8 41 -7 3 -4 4 7 3 11 -2 19 -9 18 -15 -4 -17 14 -15 21 3 8
23 -4 44 -35 60 -15 8 -29 15 -31 14 -2 0 -13 -4 -25 -9z"/>
<path d="M3639 1134 c-23 -49 -45 -99 -50 -112 -9 -23 -29 -22 -29 2 0 21 -38
63 -72 80 -44 23 -146 21 -201 -3 -109 -47 -187 -170 -195 -307 -4 -69 -1 -86
18 -124 12 -24 28 -49 34 -56 26 -25 82 -46 138 -51 32 -3 58 -10 58 -14 0 -5
7 -9 15 -9 9 0 12 -6 9 -15 -4 -8 -10 -15 -16 -15 -5 0 -7 4 -3 9 3 5 1 12 -4
15 -7 5 -81 -102 -81 -118 0 -3 -13 -28 -30 -54 -35 -58 -37 -73 -10 -97 28
-25 66 -8 75 35 5 21 11 30 21 26 8 -3 14 -1 14 4 0 6 16 32 35 60 19 27 30
52 25 55 -5 3 -11 1 -15 -5 -3 -5 -3 -10 2 -10 4 0 2 -4 -6 -9 -9 -6 -19 -4
-27 4 -8 7 -19 15 -26 18 -10 4 -11 7 0 18 9 10 12 10 12 0 0 -7 4 -10 9 -7 5
4 11 0 14 -6 3 -10 7 -10 20 0 9 8 20 11 25 8 11 -7 46 30 39 41 -3 5 1 17 9
28 8 10 14 14 14 9 0 -6 -6 -16 -12 -24 -11 -12 -10 -12 5 -1 9 7 17 20 17 27
0 8 5 14 12 14 6 0 9 3 6 6 -15 15 -81 -40 -74 -61 2 -6 -5 -11 -15 -11 -11 0
-19 4 -19 8 0 20 2 23 16 20 8 -2 14 4 14 12 0 9 -6 13 -14 10 -7 -3 -16 2
-20 11 -3 9 -2 13 3 10 16 -9 24 15 10 31 -6 8 -9 17 -5 21 3 3 6 1 6 -5 0 -7
9 -12 21 -12 12 0 19 5 16 13 -2 6 -10 11 -16 9 -15 -3 -14 14 5 54 20 42 29
49 31 24 1 -11 -4 -19 -10 -17 -6 1 -13 -9 -15 -22 -2 -13 0 -21 5 -18 5 3 13
-6 20 -19 8 -18 8 -22 0 -18 -8 5 -9 4 -2 -3 6 -6 20 -14 33 -18 21 -6 27 2
23 28 -1 5 3 6 8 3 15 -10 50 42 44 65 -4 14 -1 20 8 19 27 -4 39 0 39 14 0 8
9 21 21 29 12 9 16 17 10 21 -7 5 -7 13 1 25 9 15 7 23 -15 47 -15 16 -27 23
-27 16 0 -20 -20 -13 -29 11 -5 14 -4 25 3 29 7 5 4 8 -7 8 -11 0 -15 5 -11
11 4 7 10 7 16 1 13 -13 50 -3 45 12 -3 6 -10 10 -16 9 -17 -4 -13 47 4 53 8
4 15 10 15 16 0 5 -5 6 -11 2 -6 -3 -5 4 3 16 7 12 18 31 24 42 8 13 14 16 19
8 4 -6 -2 -19 -13 -28 -23 -21 -22 -60 3 -78 10 -8 15 -17 11 -21 -4 -4 -11
-1 -16 7 -13 22 -23 5 -11 -18 9 -17 7 -22 -19 -31 -22 -7 -30 -16 -30 -33 1
-20 2 -21 11 -5 5 9 17 17 24 17 8 0 15 5 15 12 0 6 9 3 20 -7 23 -21 19 -35
-5 -15 -18 15 -21 -1 -5 -31 14 -25 27 -24 35 1 4 11 11 18 16 15 5 -4 9 -1 9
6 0 7 3 9 7 5 5 -4 0 -14 -10 -21 -12 -8 -14 -15 -8 -20 6 -3 18 1 27 9 12 12
13 20 4 37 -7 11 -9 23 -6 27 3 3 6 -1 6 -8 0 -11 3 -11 12 -2 10 10 10 15 -2
23 -12 9 -12 10 3 5 10 -3 21 -6 24 -6 4 0 -2 -9 -12 -20 -24 -27 -12 -26 20
2 13 11 21 26 18 31 -4 6 0 8 9 4 12 -4 14 -1 11 14 -4 15 -11 18 -27 13 -20
-6 -20 -5 -3 12 12 13 20 15 25 8 4 -6 16 -14 26 -18 19 -7 19 -6 1 14 -10 11
-15 23 -12 27 4 3 7 2 7 -4 0 -15 39 -23 47 -10 4 7 8 19 8 27 0 10 11 16 30
17 17 1 42 6 57 12 34 13 41 -1 22 -48 -8 -18 -16 -44 -18 -56 -2 -12 -20 -57
-40 -100 -27 -58 -32 -75 -19 -71 13 5 14 4 3 -9 -19 -23 -3 -18 20 7 11 12
18 28 15 36 -2 7 -1 10 4 7 5 -3 12 -1 16 4 13 23 35 -2 33 -38 l-1 -36 -4 33
c-2 17 -9 32 -14 32 -16 0 -23 -32 -11 -51 8 -12 8 -20 2 -24 -12 -7 -4 -25
11 -25 5 0 9 8 10 18 0 9 3 12 5 5 3 -7 0 -21 -6 -33 -10 -18 -13 -19 -26 -5
-9 8 -21 12 -27 8 -6 -3 -3 4 6 18 21 29 21 39 2 39 -8 0 -15 -7 -15 -15 0
-19 -14 -19 -30 0 -11 14 -17 9 -40 -33 -40 -73 -42 -81 -19 -75 11 3 19 0 19
-6 0 -7 -4 -10 -9 -6 -23 14 -18 -16 5 -34 34 -26 66 -27 82 -1 14 23 0 27
-18 5 -7 -8 -19 -15 -28 -15 -8 0 -12 3 -9 7 4 3 2 12 -4 19 -8 9 -7 18 1 31
9 14 10 15 6 1 -2 -9 1 -24 8 -34 13 -17 14 -17 24 2 13 24 4 75 -17 91 -21
15 -35 5 -20 -13 6 -8 9 -17 5 -21 -3 -3 -6 0 -6 7 0 9 -6 8 -20 -5 -18 -17
-20 -17 -14 -2 3 9 10 17 15 17 5 0 8 3 7 8 0 4 2 14 6 23 6 15 10 14 33 -7
14 -13 29 -22 33 -19 4 2 6 -9 5 -26 -1 -16 1 -32 5 -34 9 -5 40 32 33 39 -4
3 -1 6 6 6 7 0 9 5 5 12 -5 7 -2 9 8 5 9 -3 23 2 33 12 15 17 15 20 0 35 -18
17 -9 21 14 7 9 -6 19 -5 26 2 8 7 9 14 3 18 -5 3 -1 12 8 20 14 11 16 11 10
1 -7 -11 -4 -12 13 -2 12 6 19 15 16 21 -4 5 1 9 9 9 9 0 15 6 14 13 -2 6 2
11 9 10 16 -3 28 36 15 49 -14 14 -33 1 -26 -17 3 -8 -4 -20 -15 -27 -12 -7
-21 -18 -21 -25 0 -7 -4 -13 -10 -13 -5 0 -10 7 -10 16 0 14 -2 15 -17 3 -16
-13 -17 -12 -5 2 10 14 10 18 -3 23 -21 8 -19 23 6 29 12 3 18 10 14 16 -4 7
0 8 11 4 13 -5 16 -3 11 10 -4 11 -2 14 9 10 7 -3 14 0 14 7 0 6 5 8 10 5 15
-9 25 25 11 38 -10 9 -12 9 -9 -3 2 -8 -3 -14 -9 -12 -7 1 -13 -5 -13 -15 0
-9 -3 -13 -6 -10 -4 4 -19 -3 -35 -13 -28 -21 -50 -12 -24 10 11 9 12 17 5 30
-7 13 -7 21 0 25 6 4 9 3 8 -2 -2 -4 0 -9 5 -10 16 -6 19 -2 7 12 -11 13 -10
14 2 10 9 -4 18 1 22 10 4 11 2 14 -7 8 -6 -4 -14 -8 -17 -9 -3 0 -13 -4 -23
-8 -10 -5 -23 -3 -31 3 -11 9 -15 9 -19 -1 -3 -8 -6 -6 -6 5 -1 16 5 18 43 15
49 -5 82 12 72 37 -3 9 -2 13 4 10 6 -3 10 -1 10 4 0 6 -7 11 -15 11 -14 0
-13 3 1 25 19 29 12 58 -11 49 -11 -5 -14 -2 -8 11 5 15 2 17 -15 13 -16 -4
-19 -2 -15 10 4 10 2 13 -5 8 -6 -3 -13 -2 -17 4 -3 5 -23 10 -43 10 -29 0
-34 -3 -22 -11 11 -8 8 -9 -14 -4 -23 5 -38 -2 -80 -34 -28 -22 -75 -64 -105
-94 -48 -50 -52 -56 -35 -66 11 -6 14 -11 7 -11 -6 0 -15 5 -18 10 -5 8 -11 7
-21 -1 -7 -6 -11 -16 -7 -22 3 -5 1 -7 -5 -3 -6 3 -14 -3 -17 -15 -11 -33 2
-34 30 -3 25 28 25 28 -2 -12 -16 -24 -29 -36 -31 -28 -2 8 -8 14 -13 14 -6 0
-5 8 1 20 6 11 8 20 5 20 -3 0 4 10 15 22 12 13 19 31 16 40 -2 10 0 16 4 13
12 -7 23 13 15 26 -5 7 -14 4 -26 -7 -15 -13 -16 -20 -7 -31 8 -10 8 -17 0
-25 -9 -9 -12 -7 -12 7 0 16 -2 17 -10 5 -6 -9 -5 -17 2 -21 7 -4 7 -9 0 -13
-6 -3 -13 -3 -16 2 -7 11 19 84 28 80 14 -5 35 46 30 72 -5 24 -5 24 10 6 18
-23 20 -36 6 -36 -5 0 -10 -7 -10 -15 0 -31 17 -13 44 47 l27 63 -21 17 c-12
10 -28 18 -35 18 -7 0 -21 3 -29 6 -13 5 -25 -14 -57 -82z m-159 -328 c0 -3
-9 -21 -21 -40 -30 -51 -117 -73 -172 -45 -29 16 -37 28 -37 62 l0 27 115 0
c63 0 115 -2 115 -4z"/>
<path d="M4865 1130 c-4 -6 -11 -8 -16 -5 -5 3 -6 -1 -3 -9 3 -9 2 -16 -4 -16
-6 0 -12 5 -14 12 -3 7 -10 8 -17 4 -10 -7 -10 -10 -1 -16 9 -6 7 -13 -9 -29
-23 -23 -45 -28 -38 -8 2 6 9 12 15 12 7 0 12 4 13 8 1 16 -8 17 -21 2 -7 -8
-18 -15 -25 -15 -7 0 -15 -7 -19 -15 -3 -8 -12 -15 -19 -15 -8 0 -21 -7 -28
-16 -12 -15 -11 -16 11 -9 14 4 27 12 28 16 8 21 29 8 24 -16 -3 -19 1 -27 19
-34 13 -5 18 -10 11 -10 -8 -1 -27 8 -44 20 -33 24 -33 24 -42 -11 -7 -24 -6
-24 9 -5 15 18 16 18 33 1 16 -17 16 -18 -5 -11 -14 4 -23 2 -23 -4 0 -19 -19
-12 -31 10 -9 17 -8 20 2 14 7 -5 10 -4 5 3 -10 16 -38 2 -32 -15 3 -8 2 -12
-3 -9 -10 7 -23 -22 -16 -34 3 -5 0 -12 -6 -16 -8 -4 -9 -3 -5 4 4 7 2 12 -3
12 -11 0 -16 -26 -12 -67 1 -12 -2 -24 -7 -27 -5 -3 -8 12 -7 34 1 22 -2 37
-6 34 -5 -3 -9 -11 -9 -19 0 -7 -7 -16 -16 -19 -8 -3 -12 -11 -9 -16 4 -6 1
-9 -6 -8 -7 2 -18 -8 -25 -22 -12 -23 -11 -25 9 -30 15 -4 18 -8 9 -14 -6 -4
-12 -5 -12 -1 0 3 -9 1 -20 -5 -16 -9 -20 -8 -20 5 0 8 -4 15 -8 15 -14 0 -43
-36 -35 -43 8 -8 -26 -47 -41 -47 -6 0 -2 7 8 15 13 10 15 15 6 15 -7 0 -20
-7 -29 -15 -9 -8 -26 -23 -39 -35 -12 -11 -27 -18 -32 -15 -5 3 -11 1 -15 -5
-3 -5 1 -10 9 -10 8 0 20 -9 26 -20 15 -27 -2 -25 -29 4 -17 18 -21 29 -13 42
5 9 7 25 4 36 -2 10 -1 18 4 16 5 -2 9 2 9 7 0 6 -4 9 -8 7 -5 -1 -6 7 -2 18
4 13 2 20 -7 20 -10 0 -9 3 2 10 13 8 13 10 -2 10 -9 0 -19 -6 -21 -12 -4 -9
-6 -8 -6 2 0 8 3 21 8 29 7 11 12 10 28 -6 11 -11 17 -25 15 -31 -2 -7 3 -12
11 -12 16 0 35 37 31 63 -1 9 2 15 6 12 5 -3 11 -1 15 5 3 5 1 10 -5 10 -6 0
-8 5 -5 10 3 6 1 10 -6 10 -7 0 -9 3 -6 6 4 4 13 2 21 -5 12 -10 19 -2 40 43
27 58 33 91 16 101 -15 9 -41 -21 -34 -39 7 -19 24 -21 24 -4 0 6 3 8 7 5 3
-4 -1 -15 -10 -25 -10 -10 -14 -22 -10 -27 5 -4 2 -5 -5 -1 -7 5 -11 13 -9 20
3 6 -1 20 -9 31 -11 15 -17 16 -26 7 -7 -7 -19 -12 -27 -12 -14 0 -14 2 -1 11
11 8 8 9 -13 4 -18 -3 -26 -2 -23 4 4 5 25 9 47 8 26 -1 43 4 49 13 12 19 3
26 -42 33 -31 5 -38 3 -38 -11 0 -21 -36 -46 -45 -32 -3 6 -1 10 4 10 6 0 11
4 11 10 0 5 -15 1 -32 -10 -18 -11 -40 -23 -48 -27 -8 -4 -23 -15 -34 -24 -17
-16 -17 -20 -3 -48 10 -19 12 -33 6 -37 -6 -3 -3 -11 7 -18 10 -8 14 -19 10
-27 -4 -8 1 -5 11 6 17 18 57 45 66 45 9 0 0 -49 -12 -63 -7 -9 -10 -21 -6
-27 3 -5 1 -10 -6 -10 -7 0 -9 -3 -6 -7 4 -3 1 -16 -7 -28 -15 -22 -6 -52 12
-41 5 3 12 -3 15 -13 3 -14 1 -18 -9 -14 -10 4 -14 -3 -14 -25 0 -17 -5 -34
-12 -38 -6 -4 -9 -3 -6 2 3 5 0 14 -7 21 -10 10 -15 9 -19 -4 -4 -9 -3 -19 3
-22 5 -3 8 -19 7 -36 -1 -28 1 -30 36 -31 21 -1 36 2 33 6 -2 3 13 12 33 20
41 15 73 40 50 40 -11 0 -11 2 0 9 8 4 13 11 12 15 -4 19 8 29 26 21 17 -7 17
-8 2 -12 -10 -3 -18 -11 -18 -19 0 -20 5 -18 44 17 21 18 33 36 29 45 -4 12 2
14 31 12 20 -1 35 -7 35 -13 -1 -5 -1 -19 0 -30 1 -14 4 -16 9 -7 6 9 14 1 28
-25 31 -61 33 -64 55 -50 14 9 26 9 48 0 21 -8 32 -8 40 0 15 15 14 24 -9 47
-25 25 -30 25 -30 3 0 -14 -2 -15 -9 -4 -5 8 -20 12 -38 9 -29 -4 -53 10 -53
32 0 5 -4 10 -10 10 -15 0 -12 27 4 33 11 4 16 -3 18 -25 4 -40 27 -50 26 -11
-1 46 1 55 13 47 7 -4 9 0 5 14 -5 14 -1 24 11 31 16 9 16 12 3 21 -23 15 -27
13 -33 -20 -7 -31 -21 -37 -47 -20 -12 8 -9 10 13 10 15 0 27 5 27 10 0 6 -7
10 -16 10 -8 0 -12 5 -9 11 4 6 0 16 -10 22 -15 11 -14 13 5 14 11 1 18 -2 15
-7 -12 -20 17 -20 34 1 20 25 46 17 38 -12 -3 -11 -2 -19 1 -19 9 0 75 96 72
105 -1 4 6 12 16 19 11 9 13 15 6 20 -6 3 -17 -2 -24 -12 -18 -25 -39 -37 -32
-19 3 9 -3 16 -15 20 -12 3 -21 11 -20 19 0 10 2 10 6 0 2 -6 9 -9 15 -6 6 4
14 0 19 -7 8 -12 11 -11 20 4 7 12 17 15 36 11 18 -5 24 -3 19 5 -4 6 -1 11 9
11 18 0 45 23 45 38 0 6 13 15 30 20 23 8 28 15 23 29 -6 15 -4 16 9 5 16 -13
48 -7 48 9 0 6 -10 5 -21 -2 -12 -6 -19 -7 -15 -1 3 5 -1 13 -10 16 -17 7 -67
-27 -56 -38 3 -4 -1 -4 -11 0 -22 8 -14 20 28 40 29 13 38 14 50 4 9 -7 18
-10 22 -7 3 4 12 2 20 -4 10 -9 17 -8 28 1 21 17 1 31 -35 24 -28 -5 -64 14
-42 23 14 6 16 23 3 23 -6 0 -13 -5 -16 -10z"/>
<path d="M834 1090 c-141 -68 -231 -244 -194 -380 16 -60 80 -124 140 -140 95
-26 218 11 298 87 110 107 142 291 67 389 -60 79 -198 99 -311 44z m163 -134
c24 -21 28 -31 28 -78 -1 -64 -26 -113 -75 -145 -96 -65 -195 25 -148 134 44
103 132 143 195 89z"/>
<path d="M1535 1094 c-21 -14 -47 -35 -57 -47 l-19 -22 5 43 6 42 -72 0 -73 0
-19 -97 c-10 -54 -25 -123 -32 -154 -8 -31 -21 -92 -29 -135 -8 -44 -19 -96
-24 -116 l-9 -38 78 0 77 0 17 78 c60 271 72 297 148 315 21 6 30 3 38 -13 11
-21 9 -41 -10 -125 -5 -22 -16 -78 -25 -125 -9 -47 -19 -95 -22 -107 -5 -22
-3 -23 70 -23 64 0 76 3 81 18 2 9 14 64 26 122 25 123 43 173 75 216 23 31
65 47 92 37 18 -7 16 -61 -7 -156 -10 -45 -24 -110 -30 -145 -6 -35 -14 -70
-17 -78 -5 -13 7 -14 73 -12 l78 3 27 130 c16 72 33 149 38 172 42 172 11 243
-105 243 -50 0 -114 -29 -150 -67 l-24 -25 -9 25 c-18 47 -50 67 -106 67 -40
0 -61 -6 -90 -26z"/>
<path d="M2385 1103 c-16 -8 -41 -25 -54 -37 l-24 -21 5 33 5 32 -68 0 c-61 0
-67 -2 -72 -22 -3 -13 -19 -93 -37 -178 -18 -85 -36 -171 -40 -190 -4 -19 -22
-104 -39 -189 -18 -85 -34 -158 -37 -163 -3 -4 30 -8 74 -8 l79 0 13 57 c7 32
16 72 20 88 5 17 11 47 15 68 7 43 11 45 43 15 31 -30 119 -32 176 -4 47 22
120 95 146 146 26 51 50 149 50 205 0 62 -40 144 -81 168 -39 22 -133 22 -174
0z m42 -133 c49 -18 66 -79 41 -151 -17 -51 -39 -78 -82 -100 -32 -17 -43 -19
-66 -9 -82 34 -55 215 38 257 34 15 33 15 69 3z"/>
<path d="M3015 1103 c-32 -17 -70 -53 -99 -93 l-18 -25 6 33 c3 17 9 46 12 62
l7 30 -75 0 -74 0 -27 -137 c-40 -196 -74 -359 -82 -383 -6 -19 -2 -20 74 -20
l80 0 11 58 c36 184 59 251 97 282 28 24 71 40 104 40 34 0 35 1 53 98 l14 72
-27 0 c-14 -1 -39 -8 -56 -17z"/>
<path d="M7526 947 c-21 -83 -44 -177 -52 -207 -7 -30 -19 -81 -27 -112 l-14
-58 87 0 87 0 63 252 c34 139 64 258 67 265 4 10 -15 13 -83 13 l-89 0 -39
-153z"/>
<path d="M5519 1063 c-10 -11 -10 -14 -1 -9 7 4 12 2 12 -4 0 -6 5 -8 10 -5 6
4 7 11 4 17 -5 7 -2 8 5 4 9 -6 8 -13 -5 -27 -15 -17 -15 -19 0 -25 9 -3 16
-11 16 -16 0 -6 -7 -4 -17 3 -9 8 -18 13 -20 12 -11 -9 -13 -1 -3 12 15 18 7
19 -21 4 -16 -8 -18 -13 -8 -25 15 -18 4 -31 -14 -16 -10 8 -16 6 -25 -9 -7
-11 -17 -17 -21 -14 -5 3 -22 -7 -39 -21 -34 -30 -33 -65 1 -61 16 1 22 -4 23
-20 1 -14 -3 -20 -12 -16 -7 2 -10 11 -7 19 7 18 -2 18 -21 -2 -18 -18 -22
-39 -4 -28 7 5 8 3 3 -6 -6 -10 -3 -12 13 -8 14 4 20 2 15 -5 -11 -17 -12 -77
-1 -71 6 4 8 -4 7 -17 -4 -25 15 -59 39 -73 11 -7 12 -4 3 11 -6 11 -8 23 -5
26 11 11 -19 75 -33 70 -7 -3 -13 0 -13 6 0 7 6 14 14 17 8 3 12 13 8 26 -3
14 -1 19 6 14 6 -3 14 -1 18 5 3 6 1 15 -5 19 -9 5 -7 11 5 21 15 12 17 12 12
-1 -3 -8 7 -26 23 -40 25 -22 26 -26 12 -39 -13 -12 -14 -11 -9 6 5 17 2 21
-18 21 -26 0 -43 -35 -26 -52 6 -6 10 -18 10 -27 0 -13 6 -16 23 -11 12 3 26
10 30 16 6 7 7 6 4 -4 -2 -8 -13 -16 -24 -18 -22 -3 -38 -38 -22 -48 5 -3 9 0
9 5 0 6 5 11 11 11 8 0 7 -5 -1 -15 -22 -26 2 -39 56 -30 35 5 44 9 33 16 -10
8 -8 9 11 8 31 -3 111 21 105 31 -3 4 4 10 15 13 11 3 20 11 20 18 0 10 -3 10
-12 1 -7 -7 -17 -12 -22 -12 -6 0 -4 5 4 11 11 8 12 12 2 16 -6 2 -10 9 -7 14
4 5 15 0 26 -10 21 -19 21 -19 65 12 28 20 43 36 39 46 -5 11 -3 12 10 1 9 -7
18 -10 21 -8 3 3 -8 16 -23 28 -26 21 -27 22 -4 15 15 -5 21 -4 17 3 -4 6 2
16 13 21 15 8 23 7 36 -5 9 -9 13 -19 9 -23 -4 -3 -9 0 -11 7 -3 6 -9 12 -14
12 -6 0 -7 -5 -4 -10 4 -6 2 -9 -3 -8 -19 5 -11 -17 9 -24 11 -4 19 -3 19 3 0
6 5 7 13 2 6 -4 20 -8 30 -9 31 -3 32 -5 10 -14 -16 -7 -21 -14 -16 -27 6 -15
4 -16 -9 -6 -8 7 -18 10 -21 6 -4 -3 -7 -1 -7 5 0 7 5 12 12 12 18 0 0 14 -23
17 -18 3 -21 -1 -17 -27 3 -16 1 -30 -4 -30 -4 0 -8 5 -8 12 0 6 -2 9 -5 7 -7
-8 15 -79 25 -79 5 0 7 7 4 15 -4 8 -1 21 5 29 6 7 8 16 4 19 -13 13 18 7 42
-9 22 -14 24 -14 34 5 16 28 14 66 -4 81 -8 7 -15 8 -15 3 0 -5 -7 -10 -15
-10 -8 0 -15 4 -15 9 0 4 4 8 10 8 5 0 7 7 4 15 -4 8 -1 22 6 30 10 12 10 15
-2 15 -8 0 -19 -5 -26 -12 -9 -9 -12 -9 -12 1 0 8 7 19 16 26 16 11 16 12 0
18 -10 4 -16 1 -16 -8 0 -8 -7 -15 -16 -15 -9 0 -12 -5 -8 -12 5 -8 2 -9 -9
-5 -9 3 -20 1 -24 -6 -5 -7 -21 -21 -37 -32 -16 -11 -40 -28 -55 -38 l-26 -18
33 6 c17 4 32 3 32 -2 0 -4 -16 -9 -35 -11 -20 -1 -53 -13 -75 -27 -22 -14
-44 -25 -50 -25 -5 0 -10 -6 -10 -13 0 -9 -10 -12 -30 -9 -17 2 -30 0 -30 -6
0 -6 -6 -12 -12 -15 -7 -2 -5 -3 4 -2 25 4 32 -12 8 -18 -11 -3 -26 3 -34 12
-18 20 -12 33 11 24 13 -5 12 -1 -3 22 -22 33 -26 55 -12 55 6 0 8 9 5 20 -3
11 -1 23 4 26 5 3 6 11 2 17 -4 7 -8 19 -10 27 -1 11 1 11 11 -3 13 -16 14
-16 19 3 3 11 1 18 -4 14 -5 -3 -9 0 -9 5 0 6 7 11 15 11 14 0 41 38 37 53 -1
4 5 7 13 7 10 0 14 9 12 32 -2 32 -22 49 -30 26 -2 -7 -3 -4 -1 6 2 11 -5 25
-14 32 -22 17 -27 17 -43 -3z"/>
<path d="M4996 1003 c-9 -10 -7 -20 7 -35 12 -11 12 -16 0 -26 -10 -10 -13
-10 -13 3 0 8 -9 15 -20 15 -11 0 -20 -5 -20 -11 0 -5 4 -7 10 -4 6 3 7 -1 4
-10 -4 -9 -12 -14 -18 -12 -7 3 -13 -7 -14 -24 -1 -16 2 -29 8 -29 5 0 10 -8
10 -17 -1 -16 -2 -16 -16 2 -13 17 -16 18 -24 5 -27 -43 -29 -45 -40 -32 -5 6
-7 10 -4 7 4 -3 18 10 31 27 26 36 31 58 8 34 -8 -8 -15 -20 -15 -27 0 -7 -3
-10 -6 -6 -10 10 -38 -24 -42 -49 -2 -16 2 -24 13 -24 8 0 15 -4 15 -10 0 -17
-31 2 -39 24 -8 20 -8 20 -21 -3 -10 -19 -10 -22 1 -16 7 5 4 -3 -7 -17 -10
-14 -22 -22 -25 -17 -3 5 -18 -4 -34 -21 -24 -25 -27 -32 -15 -43 10 -10 12
-9 7 5 -8 22 9 33 17 11 8 -20 -14 -36 -30 -22 -9 7 -19 6 -33 -3 -25 -15 -22
-34 5 -30 10 2 31 4 46 3 31 0 42 11 47 49 2 15 18 12 24 -4 4 -11 1 -13 -10
-9 -10 4 -14 2 -10 -4 4 -6 0 -16 -8 -23 -8 -7 -15 -17 -15 -22 0 -5 12 3 26
17 14 14 36 33 50 41 13 9 24 25 24 36 0 15 3 17 19 8 27 -14 31 -13 31 7 0
13 3 14 12 5 9 -9 8 -15 -7 -26 -12 -9 -16 -19 -11 -32 4 -10 6 -20 4 -20 -2
-1 5 -10 14 -21 21 -22 74 -28 97 -11 14 12 15 11 2 -5 -18 -23 -7 -33 21 -18
13 6 15 9 6 7 -11 -3 -15 0 -12 7 5 13 42 16 60 5 5 -4 20 0 34 8 l25 14 -29
-6 c-21 -5 -27 -4 -22 5 4 6 24 11 44 11 20 0 45 7 54 14 20 15 14 28 -10 19
-10 -5 -13 -3 -8 6 5 7 14 10 22 7 28 -11 43 4 37 37 -6 30 -6 30 16 15 21
-15 25 -14 55 5 30 20 33 26 33 75 0 52 -7 61 -36 43 -11 -7 -10 -11 5 -19 17
-10 16 -11 -8 -9 -15 1 -26 -2 -25 -8 1 -5 8 -9 14 -9 7 1 10 -2 7 -7 -3 -5 1
-9 9 -9 8 0 17 -6 20 -13 3 -9 -3 -13 -17 -13 -14 1 -21 -5 -20 -16 1 -14 -2
-15 -17 -5 -18 11 -17 21 2 23 5 1 12 2 15 3 3 0 -4 10 -17 20 -17 14 -28 16
-37 9 -9 -8 -9 -14 -2 -23 13 -16 -4 -30 -21 -19 -6 3 -34 -5 -62 -19 -74 -36
-99 -38 -108 -7 -10 35 -9 121 1 145 6 14 9 15 10 5 0 -12 3 -11 11 3 15 25
-4 46 -24 28 -12 -9 -16 -8 -20 3 -3 7 -1 18 4 23 6 6 1 14 -15 21 -13 6 -27
8 -30 5z"/>
</g>
</svg>
