<?xml version="1.0" standalone="no"?>
<!DOCTYPE svg PUBLIC "-//W3C//DTD SVG 20010904//EN"
 "http://www.w3.org/TR/2001/REC-SVG-20010904/DTD/svg10.dtd">
<svg version="1.0" xmlns="http://www.w3.org/2000/svg"
 width="1200.000000pt" height="675.000000pt" viewBox="0 0 1200.000000 675.000000"
 preserveAspectRatio="xMidYMid meet">
<metadata>
Created by potrace 1.16, written by Peter Selinger 2001-2019
</metadata>
<g transform="translate(0.000000,675.000000) scale(0.100000,-0.100000)"
fill="#000000" stroke="none">
<path d="M10531 6741 c-11 -7 -4 -12 25 -19 21 -6 181 -47 354 -92 173 -45
436 -113 583 -152 148 -38 271 -68 273 -66 2 3 17 79 33 171 l28 167 -641 0
c-362 0 -647 -4 -655 -9z"/>
<path d="M11832 6693 c-41 -232 -46 -284 -32 -293 13 -8 12 -10 -1 -10 -18 0
-24 -17 -35 -96 l-6 -51 48 -6 c27 -3 82 -9 122 -13 l72 -7 0 61 c0 39 -4 62
-12 65 -10 4 -10 6 0 6 9 1 12 48 12 201 l0 200 -79 0 -79 0 -10 -57z"/>
<path d="M10385 6643 c-60 -42 -157 -108 -214 -147 -58 -39 -98 -72 -90 -73
55 -10 820 -96 964 -109 81 -7 451 -45 575 -58 63 -7 117 -12 119 -10 4 4 30
148 28 151 -2 2 -1214 311 -1247 317 -19 4 -49 -11 -135 -71z"/>
<path d="M10293 6307 c1 -29 6 -38 28 -47 17 -7 30 -23 36 -43 7 -25 14 -31
31 -29 12 2 22 -2 22 -7 0 -6 -10 -11 -22 -11 -17 0 -19 -3 -10 -12 7 -7 12
-20 12 -30 0 -10 4 -18 10 -18 5 0 36 -23 67 -51 70 -61 112 -98 144 -123 13
-10 41 -35 61 -54 33 -31 40 -34 60 -25 46 23 101 21 143 -2 22 -13 42 -31 45
-41 3 -11 12 -19 20 -19 8 0 14 -8 14 -17 -1 -10 10 -23 27 -30 16 -7 29 -17
29 -21 0 -5 5 -5 10 -2 6 4 10 -7 10 -24 0 -28 8 -36 33 -32 4 0 7 -14 7 -32
0 -22 7 -36 21 -45 12 -8 18 -9 14 -3 -3 6 -1 11 4 11 10 0 15 -14 12 -34 -1
-5 5 -6 12 -3 13 5 23 -16 31 -65 1 -3 5 -10 10 -15 5 -5 6 -3 2 5 -13 23 10
12 50 -23 21 -20 38 -42 36 -50 -2 -9 4 -18 12 -21 9 -3 33 -22 53 -41 62 -57
59 -57 171 8 56 33 102 63 102 67 0 4 31 185 69 402 38 217 69 396 68 396 -2
2 -648 59 -962 84 -126 11 -287 22 -357 26 l-126 7 1 -36z m583 -274 c0 -9 8
-19 19 -22 29 -9 65 -43 65 -63 0 -10 9 -18 23 -20 12 -2 -32 -11 -98 -20 -66
-9 -121 -15 -123 -13 -4 3 106 155 112 155 2 0 3 -8 2 -17z"/>
<path d="M10011 6304 c-10 -12 -10 -19 -2 -27 8 -8 11 -7 12 4 0 7 4 4 9 -8 7
-17 16 -21 37 -18 17 2 38 -4 53 -16 17 -13 20 -19 10 -19 -12 0 -15 -9 -12
-41 4 -34 9 -43 38 -57 24 -11 34 -22 34 -39 0 -13 9 -32 20 -43 20 -20 28
-56 10 -45 -6 3 -10 -4 -10 -18 0 -14 -7 -30 -15 -37 -29 -24 -17 -46 22 -41
18 2 73 -28 73 -39 0 -6 8 -11 18 -11 9 -1 -44 -14 -118 -29 -87 -18 -121 -28
-96 -29 34 -1 37 -3 26 -17 -11 -12 -11 -15 0 -12 9 2 17 -9 21 -32 3 -19 7
-29 8 -22 1 10 6 10 23 -3 24 -16 34 -71 17 -91 -7 -8 -4 -11 8 -10 14 1 19
-8 21 -42 2 -24 -2 -50 -9 -58 -6 -8 -10 -16 -8 -17 2 -1 17 -9 32 -17 24 -12
27 -19 24 -46 -3 -18 -2 -36 1 -39 3 -3 7 -13 8 -21 1 -9 0 -14 -2 -11 -3 3
-20 1 -39 -3 -21 -5 -38 -3 -46 4 -9 8 -10 8 -4 -3 6 -11 -6 -12 -70 -7 -43 3
-76 4 -73 1 4 -5 26 -9 196 -43 l82 -17 -88 -135 c-196 -299 -114 -189 273
367 60 87 128 184 152 215 24 31 43 61 43 67 0 5 -33 35 -72 66 -40 31 -80 62
-89 69 -9 7 -51 41 -95 74 -43 34 -85 67 -91 72 -7 6 -13 8 -13 4 0 -3 -7 -1
-16 7 -13 10 -17 10 -26 -2 -8 -11 -9 -11 -5 3 7 21 -3 31 -18 18 -15 -12 -45
-3 -45 14 0 7 -18 25 -40 42 -22 16 -40 35 -40 43 0 11 4 11 18 -2 10 -10 22
-17 25 -17 4 0 -12 17 -35 38 -24 20 -50 44 -58 52 -14 14 -56 41 -62 40 -2
-1 -9 -8 -17 -16z"/>
<path d="M11754 6217 c-8 -21 -132 -771 -129 -775 2 -2 87 46 189 108 l186
111 0 273 0 273 -102 7 c-57 4 -111 9 -121 12 -9 3 -19 -1 -23 -9z"/>
<path d="M10852 5651 c-16 -9 -5 -41 14 -41 8 0 31 -16 53 -35 21 -19 43 -35
48 -35 5 0 17 -14 27 -31 10 -17 20 -28 23 -25 3 3 12 -1 19 -9 8 -8 21 -12
29 -9 9 4 15 0 15 -10 0 -9 -4 -16 -8 -16 -4 0 -8 -8 -9 -19 -1 -13 5 -18 20
-17 16 1 21 -5 22 -26 1 -15 -2 -25 -6 -22 -4 2 -6 13 -4 24 2 12 0 18 -6 15
-5 -4 -9 -17 -9 -31 0 -17 5 -24 20 -24 14 0 20 -7 21 -25 2 -43 4 -46 24 -61
17 -13 18 -16 5 -25 -13 -9 -13 -10 0 -6 8 2 14 12 14 21 -3 25 23 19 42 -9 9
-14 15 -28 12 -31 -7 -6 -197 15 -232 26 -15 5 -32 7 -37 5 -4 -3 -48 -1 -96
5 -48 6 -106 13 -128 16 -22 2 -56 7 -75 9 -32 5 -33 4 -10 -5 14 -6 41 -13
60 -15 48 -6 275 -41 387 -60 l91 -15 84 51 c45 28 84 52 85 53 1 1 -57 49
-130 106 -72 58 -166 133 -209 168 -42 34 -81 62 -86 62 -6 0 -12 7 -16 15 -3
8 -12 15 -20 15 -8 0 -16 4 -18 10 -1 5 -9 6 -16 1z"/>
<path d="M11805 5529 c-99 -61 -181 -112 -183 -114 -2 -2 -32 -190 -32 -202 0
-2 5 -1 11 3 6 3 14 2 18 -4 4 -6 84 52 194 139 l187 150 0 70 c0 38 -3 69 -7
69 -5 0 -89 -50 -188 -111z"/>
<path d="M11443 4928 c-51 -101 -132 -259 -181 -353 -247 -471 -342 -658 -339
-662 3 -2 26 38 52 89 72 140 392 749 517 982 32 60 58 113 58 118 0 30 -27
-14 -107 -174z"/>
<path d="M11716 4748 c-10 -39 -7 -103 7 -117 10 -10 9 -11 -5 -6 -10 4 -18 3
-18 -3 0 -6 4 -12 10 -14 5 -1 -13 -34 -40 -73 -27 -38 -55 -81 -61 -95 -6
-14 -16 -32 -22 -40 -7 -9 3 0 21 20 37 41 38 41 77 99 l30 44 7 -34 c4 -19 4
-67 1 -107 l-6 -74 -32 36 c-17 20 -35 36 -38 36 -10 0 48 -83 74 -105 22 -20
22 -20 15 -1 -11 30 14 297 30 323 16 26 18 47 4 38 -6 -3 -10 4 -10 17 0 13
-8 36 -19 51 l-18 28 -7 -23z"/>
<path d="M1286 3814 c-37 -36 -146 -152 -244 -257 -97 -105 -195 -209 -217
-232 -23 -22 -50 -55 -60 -72 -11 -18 -23 -33 -28 -33 -5 0 -7 -7 -4 -14 4 -9
1 -13 -6 -10 -7 2 -25 -12 -40 -31 l-29 -36 34 -65 33 -65 20 27 c11 14 66 88
122 163 116 153 243 326 258 349 6 9 20 25 32 36 46 44 163 209 163 231 0 12
9 34 21 49 34 44 15 29 -55 -40z"/>
<path d="M11947 3245 c-50 -38 -67 -43 -67 -20 0 30 -49 -6 -61 -44 -6 -22
-25 -46 -45 -61 -19 -14 -57 -42 -83 -62 -27 -21 -52 -38 -56 -38 -4 0 -5 15
-3 34 3 29 1 33 -12 26 -45 -24 -48 -55 -42 -470 3 -163 6 -201 15 -186 7 10
80 120 164 245 174 258 206 310 206 328 0 7 3 11 5 8 3 -3 11 3 17 12 12 16
23 263 12 263 -2 0 -25 -16 -50 -35z"/>
<path d="M529 2993 c-47 -49 -185 -197 -307 -330 -203 -222 -222 -245 -222
-278 l0 -36 273 242 c149 133 291 261 313 285 23 24 48 44 55 44 11 0 11 2 1
8 -9 7 -8 13 8 27 11 10 20 23 20 29 0 14 -43 96 -51 96 -3 0 -44 -39 -90 -87z"/>
<path d="M11542 2945 c-2 -5 -4 -44 -6 -85 -8 -177 -30 -360 -47 -393 -8 -14
-3 -24 23 -48 l33 -30 3 141 c3 144 -2 433 -6 415z"/>
<path d="M614 2845 c-10 -14 -23 -25 -29 -25 -10 0 -74 -53 -394 -330 l-191
-165 0 -171 0 -171 158 -10 c86 -5 161 -7 165 -3 11 10 129 322 123 327 -2 2
-20 0 -40 -5 -24 -7 -38 -7 -42 0 -4 6 -3 13 2 17 5 3 10 17 10 31 1 14 2 30
3 36 1 9 71 54 85 54 3 0 6 -7 6 -15 0 -25 17 -17 28 13 6 15 35 97 66 182 31
85 60 162 65 171 6 11 6 20 -1 27 -7 7 -6 17 2 32 17 31 6 35 -16 5z"/>
<path d="M653 2375 c-73 -24 -141 -48 -151 -54 -20 -11 -25 -21 -105 -222
l-54 -136 81 -6 c245 -18 466 -30 471 -25 10 10 -88 488 -99 488 -6 -1 -70
-21 -143 -45z"/>
<path d="M11385 2289 c-77 -15 -228 -44 -335 -64 -107 -20 -251 -47 -320 -60
-69 -14 -219 -43 -335 -66 -115 -22 -212 -43 -215 -47 -3 -4 -15 -7 -27 -6
-13 1 -23 -2 -23 -5 0 -4 -13 -6 -29 -5 -24 2 -28 -1 -23 -15 5 -14 4 -14 -14
-1 -18 14 -18 14 -2 -6 17 -19 17 -21 0 -39 -16 -18 -16 -18 1 -6 15 12 17 11
17 -6 0 -23 70 -91 430 -419 620 -563 812 -735 816 -732 6 7 139 900 189 1273
14 105 28 200 30 213 6 27 16 27 -160 -9z"/>
<path d="M0 1821 l0 -139 81 -68 c61 -51 83 -64 89 -54 13 22 122 321 118 325
-2 2 -56 14 -121 27 -64 12 -117 26 -117 30 0 4 17 9 38 11 25 2 16 4 -25 5
l-63 2 0 -139z"/>
<path d="M246 1710 c-37 -94 -64 -174 -61 -180 3 -5 94 -85 202 -177 108 -92
241 -207 297 -255 55 -48 103 -84 106 -81 3 2 -5 13 -17 23 -12 9 -19 21 -15
25 4 5 2 5 -4 2 -7 -4 -23 5 -38 20 -27 27 -33 43 -16 43 6 0 10 9 10 19 0 15
-8 21 -32 23 l-33 4 26 11 c25 11 40 32 38 56 0 7 -4 2 -10 -11 l-9 -24 -29
24 c-15 13 -26 27 -23 33 3 5 5 22 4 37 -2 18 3 31 13 34 8 4 15 13 15 20 0
15 -61 74 -89 86 -14 6 -14 7 0 7 13 1 15 9 9 46 -4 24 -4 42 -1 40 4 -2 15 4
26 12 15 12 16 14 3 10 -13 -5 -16 -1 -12 19 2 13 1 24 -3 24 -5 0 -8 13 -9
30 -1 16 3 27 7 24 5 -3 9 1 9 8 0 11 2 11 9 0 6 -10 10 -10 21 3 11 13 10 15
-4 9 -20 -8 -31 19 -17 43 7 13 10 14 11 4 0 -11 4 -9 14 5 13 16 13 21 0 36
-15 16 -37 18 -50 5 -15 -15 -24 -6 -24 23 0 17 4 30 9 30 6 0 8 -9 6 -20 -2
-11 0 -18 6 -15 5 4 9 14 10 23 0 16 1 16 7 0 6 -15 10 -15 32 -2 14 8 18 14
10 13 -8 -1 -22 1 -30 4 -12 5 -288 57 -302 57 -2 0 -34 -77 -72 -170z"/>
<path d="M690 1815 c0 -3 9 -24 20 -45 11 -22 18 -40 15 -40 -3 0 2 -17 11
-37 18 -41 69 -178 140 -373 25 -69 52 -132 61 -140 8 -8 13 -10 11 -5 -2 6
11 28 29 49 30 37 53 41 53 9 0 -9 3 -14 6 -11 3 4 -19 128 -48 277 -47 241
-55 272 -73 276 -11 2 -58 11 -105 20 -47 9 -93 18 -102 21 -10 3 -18 3 -18
-1z"/>
<path d="M11723 1800 c-8 -20 -183 -502 -198 -547 -8 -22 -19 -14 -54 40 -19
28 -36 47 -38 40 -2 -6 12 -37 33 -68 l36 -57 -32 -87 c-71 -194 -110 -310
-110 -331 0 -54 28 1 92 180 38 107 74 198 80 201 6 4 8 11 4 17 -3 5 42 144
99 308 58 164 104 305 102 313 -3 12 -7 9 -14 -9z"/>
<path d="M10410 1584 c700 -726 808 -838 850 -887 18 -21 36 -34 40 -30 4 4
11 33 14 64 l7 57 -198 178 c-197 178 -565 506 -738 658 l-90 80 115 -120z"/>
<path d="M0 1648 c0 -7 125 -137 278 -288 385 -381 466 -458 459 -437 -8 22
12 57 32 57 8 0 25 -10 38 -22 13 -12 23 -19 23 -15 0 6 -772 678 -811 706
-16 11 -19 11 -19 -1z"/>
<path d="M0 1369 c0 -133 2 -240 4 -238 6 6 126 327 126 336 0 5 -29 39 -65
76 l-65 68 0 -242z"/>
<path d="M140 1448 c0 -9 -31 -96 -70 -194 -64 -162 -87 -236 -60 -194 6 9 10
10 10 3 0 -6 -5 -15 -10 -18 -16 -10 -12 -51 7 -66 11 -10 14 -10 9 -1 -4 7
-1 12 8 12 9 0 16 4 16 8 0 4 11 9 25 10 14 1 25 -4 25 -11 0 -8 4 -7 10 3 7
11 4 19 -9 30 -25 20 -36 57 -17 57 9 0 13 -3 11 -7 -2 -3 5 -11 15 -18 15 -9
22 -8 36 5 16 16 14 19 -20 48 -68 57 -47 70 127 80 38 2 72 7 75 11 4 4 -14
4 -40 1 -26 -4 -49 -3 -52 1 -3 5 5 8 17 9 70 2 107 8 107 18 0 6 -49 60 -110
120 -66 66 -110 103 -110 93z"/>
<path d="M10480 1336 c0 -2 33 -30 73 -62 91 -73 98 -79 68 -64 -13 6 -50 32
-83 57 -32 25 -61 43 -64 40 -3 -3 7 -14 23 -24 15 -10 42 -31 58 -48 17 -16
54 -50 83 -73 29 -24 52 -47 52 -51 0 -5 -48 -77 -108 -162 -225 -322 -244
-351 -231 -347 14 5 115 144 250 346 75 110 107 152 119 152 4 0 23 -14 41
-30 40 -36 400 -336 435 -363 13 -10 24 -14 24 -8 0 8 -137 135 -196 181 -11
8 -46 36 -79 62 -33 26 -95 74 -137 108 -67 52 -93 80 -73 80 3 0 53 -39 112
-87 133 -106 149 -117 98 -66 -22 21 -75 66 -118 98 -66 49 -77 62 -73 81 7
27 -9 41 -21 19 -9 -15 -2 -20 -154 99 -55 43 -99 71 -99 62z"/>
<path d="M1596 1171 c-27 -43 -86 -142 -146 -245 -39 -68 -62 -95 -77 -89 -12
5 -17 -7 -14 -34 1 -7 -7 -9 -21 -5 -26 6 -48 25 -48 40 0 6 -5 12 -12 14 -7
3 -12 17 -13 33 0 21 -7 33 -25 42 -14 7 -24 17 -22 23 1 5 -4 10 -10 10 -10
0 -10 2 0 9 10 6 8 10 -8 14 -13 3 -23 0 -27 -9 -3 -8 -11 -14 -18 -14 -33 0
-35 -25 -11 -148 13 -67 29 -128 36 -137 7 -9 34 -33 60 -55 l46 -39 54 87
c139 226 220 364 220 377 0 8 5 15 11 15 5 0 8 4 5 8 -2 4 2 21 9 37 23 50 45
108 43 110 -2 2 -16 -18 -32 -44z"/>
<path d="M1043 1158 c1 -32 5 -58 10 -58 4 0 6 -3 5 -7 -1 -5 2 -46 6 -93 6
-68 4 -91 -8 -114 -11 -22 -12 -34 -4 -43 6 -7 8 -24 6 -38 -4 -20 3 -32 38
-61 24 -19 44 -34 44 -31 0 2 -11 60 -25 128 -14 68 -28 138 -30 154 -3 17
-14 73 -24 125 -18 90 -19 92 -18 38z"/>
<path d="M1424 723 c-53 -80 -97 -153 -98 -161 0 -8 19 -32 44 -53 l46 -39 79
34 c44 18 78 37 75 42 -3 5 -12 7 -21 6 -9 -2 -22 5 -30 15 -12 15 -12 16 4
10 10 -4 16 -3 13 2 -6 9 30 51 44 51 14 0 6 38 -10 53 -12 10 -12 9 -1 -5 14
-19 5 -23 -23 -12 -19 7 -21 30 -3 37 9 4 9 8 -2 15 -9 7 -12 20 -8 40 5 24 2
31 -19 40 l-24 12 20 20 c18 18 27 40 16 40 -2 0 -48 -66 -102 -147z"/>
<path d="M941 778 l-43 -31 143 -143 c79 -79 144 -142 145 -141 1 1 -7 50 -18
108 l-20 105 -79 67 c-43 37 -80 67 -82 67 -2 0 -22 -14 -46 -32z"/>
<path d="M1079 447 c-29 -28 -38 -32 -53 -23 -14 8 -20 8 -23 -1 -3 -7 -16
-13 -29 -13 -13 0 -23 -5 -22 -11 2 -6 -6 -16 -17 -22 -11 -7 -25 -19 -31 -27
-13 -15 -15 -16 -71 -18 -26 -2 -33 -6 -33 -22 0 -11 -3 -20 -6 -20 -4 0 -47
23 -97 51 -55 31 -93 47 -95 40 -2 -6 -8 -9 -13 -5 -5 3 -9 -2 -9 -11 0 -9 5
-13 10 -10 6 3 10 2 10 -4 0 -5 -6 -12 -12 -14 -22 -9 10 -25 38 -19 18 3 24
0 24 -13 0 -13 -6 -16 -25 -13 -19 4 -25 1 -25 -13 0 -9 5 -19 11 -21 6 -2 9
-18 7 -35 l-3 -32 -85 48 -85 49 -6 -32 c-6 -30 -6 -30 -8 -3 -1 34 -21 36
-21 2 0 -24 9 -30 37 -26 7 1 13 -9 13 -21 0 -18 -6 -24 -27 -26 -33 -3 -40
-9 -25 -24 9 -9 12 -9 12 -1 0 7 14 11 30 11 17 -1 30 -4 30 -7 0 -11 -38 -30
-45 -23 -4 4 -10 7 -13 7 -7 1 -94 44 -101 51 -2 2 4 14 14 26 11 13 -7 -3
-39 -34 -56 -55 -65 -79 -28 -73 9 1 16 8 14 16 -2 9 0 10 11 1 8 -7 16 -10
18 -7 3 2 5 -6 5 -20 0 -13 -4 -21 -8 -19 -4 3 -8 0 -8 -5 0 -6 4 -11 9 -11 5
0 8 -8 7 -17 -2 -10 -7 -16 -12 -13 -5 3 -8 9 -6 15 2 5 0 6 -4 2 -5 -4 -10
-19 -11 -32 -4 -25 -3 -25 75 -25 l79 0 209 124 c115 69 214 129 220 135 7 5
14 8 17 5 2 -2 10 2 17 11 7 8 19 15 26 15 8 0 14 3 14 8 0 4 20 18 44 32 25
13 42 28 39 33 -3 6 -1 7 5 3 14 -8 121 63 122 81 0 6 -5 15 -12 19 -7 4 -8 3
-4 -4 5 -8 2 -10 -8 -6 -9 3 -13 10 -10 15 11 18 -4 8 -37 -24z"/>
</g>
</svg>
